<svg width="42" height="42" viewBox="0 0 42 42" fill="none" xmlns="http://www.w3.org/2000/svg">
<path fill-rule="evenodd" clip-rule="evenodd" d="M41.1213 5.62132C42.2929 4.44975 42.2929 2.55025 41.1213 1.37868C39.9498 0.207107 38.0503 0.207107 36.8787 1.37868L21.25 17.0074L5.62133 1.37868C4.44976 0.207107 2.55026 0.207107 1.37869 1.37868C0.207114 2.55025 0.207114 4.44975 1.37869 5.62132L17.0074 21.25L1.37869 36.8787C0.207114 38.0503 0.207113 39.9497 1.37869 41.1213C2.55026 42.2929 4.44975 42.2929 5.62132 41.1213L21.25 25.4926L36.8787 41.1213C38.0503 42.2929 39.9498 42.2929 41.1213 41.1213C42.2929 39.9497 42.2929 38.0503 41.1213 36.8787L25.4926 21.25L41.1213 5.62132Z" fill="#D32E2E"/>
</svg>
