<svg width="23" height="35" viewBox="0 0 23 35" fill="none" xmlns="http://www.w3.org/2000/svg">
<path fill-rule="evenodd" clip-rule="evenodd" d="M0.176346 1.12226C0.621402 0.156776 1.76937 -0.267174 2.7404 0.175338L21.3076 8.63666C22.0044 8.95417 22.4468 9.6508 22.4357 10.4128C22.4245 11.1747 21.9619 11.8583 21.2562 12.1555L7.6377 17.8915L21.0552 21.8752C21.8135 22.1003 22.3574 22.7622 22.4281 23.5459C22.4989 24.3297 22.0822 25.0772 21.3763 25.433L2.80908 34.7918C1.85634 35.272 0.692459 34.8934 0.209475 33.9461C-0.273509 32.9988 0.1073 31.8416 1.06004 31.3613L15.3043 24.1816L1.38116 20.0478C0.599604 19.8157 0.0484683 19.1211 0.00342133 18.3113C-0.0416256 17.5016 0.4291 16.7508 1.18015 16.4344L15.7078 10.3155L1.12871 3.67165C0.157677 3.22914 -0.26871 2.08774 0.176346 1.12226Z" fill="#569AFF"/>
</svg>
